<svg width="11" height="11" xmlns="http://www.w3.org/2000/svg" xmlns:xlink="http://www.w3.org/1999/xlink" xmlns:svgjs="http://svgjs.com/svgjs" viewBox="186 1121 11 11"><svg width="5" height="3" xmlns="http://www.w3.org/2000/svg" xmlns:xlink="http://www.w3.org/1999/xlink" xmlns:svgjs="http://svgjs.com/svgjs" viewBox="0 0.181 5 2.639" fill="#f80" x="192" y="1129"><svg xmlns="http://www.w3.org/2000/svg" xmlns:xlink="http://www.w3.org/1999/xlink" width="5" height="3" viewBox="0.814 0.512 3.929 2.074"><path paint-order="stroke fill markers" fill-rule="evenodd" d="M2.779.512c-1.085 0-1.965.88-1.965 1.964v.11h3.93v-.11c0-1.085-.88-1.964-1.965-1.964z"/></svg></svg><svg width="3" height="3" xmlns="http://www.w3.org/2000/svg" xmlns:xlink="http://www.w3.org/1999/xlink" xmlns:svgjs="http://svgjs.com/svgjs" viewBox="0.079 0 2.842 3" fill="#e47700" x="194" y="1129"><svg xmlns="http://www.w3.org/2000/svg" xmlns:xlink="http://www.w3.org/1999/xlink" width="3" height="3" viewBox="0.779 0.512 1.965 2.074"><path paint-order="stroke fill markers" fill-rule="evenodd" d="M.779.512v2.073h1.965v-.109c0-1.085-.88-1.964-1.965-1.964z"/></svg></svg><svg width="6" height="6" xmlns="http://www.w3.org/2000/svg" xmlns:xlink="http://www.w3.org/1999/xlink" xmlns:svgjs="http://svgjs.com/svgjs" fill="#f80" x="186" y="1125"><svg xmlns="http://www.w3.org/2000/svg" xmlns:xlink="http://www.w3.org/1999/xlink" width="6" height="6" viewBox="0.095 0.006 5.398 5.398"><path paint-order="stroke fill markers" fill-rule="evenodd" d="M5.493.94L1.03 5.405l-.935-.935L4.558.006l.935.935z"/></svg></svg><svg width="6" height="6" xmlns="http://www.w3.org/2000/svg" xmlns:xlink="http://www.w3.org/1999/xlink" xmlns:svgjs="http://svgjs.com/svgjs" fill="#e47700" x="186" y="1125"><svg xmlns="http://www.w3.org/2000/svg" xmlns:xlink="http://www.w3.org/1999/xlink" width="6" height="6" viewBox="0.563 0.473 4.93 4.931"><path paint-order="stroke fill markers" fill-rule="evenodd" d="M5.493.941L1.03 5.404l-.467-.468L5.026.473l.467.468z"/></svg></svg><svg width="6" height="6" xmlns="http://www.w3.org/2000/svg" xmlns:xlink="http://www.w3.org/1999/xlink" xmlns:svgjs="http://svgjs.com/svgjs" fill="#fbbf00" x="189" y="1122"><svg xmlns="http://www.w3.org/2000/svg" xmlns:xlink="http://www.w3.org/1999/xlink" width="6" height="6" viewBox="0.331 0.183 4.985 4.985"><path paint-order="stroke fill markers" fill-rule="evenodd" d="M5.316 3.327L3.474 5.168.331 2.025 2.172.183l3.144 3.144z"/></svg></svg><svg width="5" height="5" xmlns="http://www.w3.org/2000/svg" xmlns:xlink="http://www.w3.org/1999/xlink" xmlns:svgjs="http://svgjs.com/svgjs" fill="#ffa900" x="190" y="1123"><svg xmlns="http://www.w3.org/2000/svg" xmlns:xlink="http://www.w3.org/1999/xlink" width="5" height="5" viewBox="0.903 0.755 3.413 3.413"><path paint-order="stroke fill markers" fill-rule="evenodd" d="M4.316 2.327L2.474 4.168.903 2.597 2.744.755l1.572 1.572z"/></svg></svg><svg width="5" height="4" xmlns="http://www.w3.org/2000/svg" xmlns:xlink="http://www.w3.org/1999/xlink" xmlns:svgjs="http://svgjs.com/svgjs" viewBox="0.5 0 4 4" fill="#f80" x="191" y="1124"><svg xmlns="http://www.w3.org/2000/svg" xmlns:xlink="http://www.w3.org/1999/xlink" width="5" height="4" viewBox="0.777 0.63 3.235 3.235"><path paint-order="stroke fill markers" fill-rule="evenodd" d="M1.624 3.865L.777 3.02 3.166.629l.847.847-2.389 2.39z"/></svg></svg><svg width="4" height="4" xmlns="http://www.w3.org/2000/svg" xmlns:xlink="http://www.w3.org/1999/xlink" xmlns:svgjs="http://svgjs.com/svgjs" fill="#ffa900" x="188" y="1121"><svg xmlns="http://www.w3.org/2000/svg" width="4" height="4" viewBox="0.634 0.486 3.235 3.236"><path paint-order="stroke fill markers" fill-rule="evenodd" d="M1.48 3.722l-.846-.847L3.023.486l.846.847L1.48 3.722z"/></svg></svg></svg>