<svg xmlns="http://www.w3.org/2000/svg" width="31.867" height="22.922" viewBox="0 0 31.867 22.922"><path d="M194.729,177.505s-2.283-2.417-7.467-2.767v.763s2.843-.165,6.363,3.3a19.819,19.819,0,0,0-21.313,0c3.52-3.465,6.363-3.3,6.363-3.3v-.763c-5.184.35-7.467,2.767-7.467,2.767-3.95,5.088-4.173,16.219-4.173,16.219a10.049,10.049,0,0,0,8.4,3.912l1.717-2.481a9.911,9.911,0,0,1-4.747-3.046,19.853,19.853,0,0,0,21.133,0,9.913,9.913,0,0,1-4.747,3.046l1.717,2.481a10.047,10.047,0,0,0,8.4-3.912S198.679,182.593,194.729,177.505Zm-16.722,13.071a2.878,2.878,0,1,1,2.7-2.872A2.792,2.792,0,0,1,178.007,190.576Zm9.923,0a2.878,2.878,0,1,1,2.7-2.872A2.792,2.792,0,0,1,187.93,190.576Z" transform="translate(-167.035 -174.738)" fill="#a1a194"/></svg>