<svg xmlns="http://www.w3.org/2000/svg" width="31.702" height="25.748" viewBox="0 0 31.702 25.748">
  <path id="Icon_awesome-twitter" data-name="Icon awesome-twitter" d="M28.444,9.8c.02.282.02.563.02.845,0,8.589-6.538,18.486-18.486,18.486A18.361,18.361,0,0,1,0,26.212a13.441,13.441,0,0,0,1.569.08,13.012,13.012,0,0,0,8.066-2.776A6.509,6.509,0,0,1,3.56,19.011a8.194,8.194,0,0,0,1.227.1A6.872,6.872,0,0,0,6.5,18.89a6.5,6.5,0,0,1-5.21-6.377v-.08a6.544,6.544,0,0,0,2.937.825,6.507,6.507,0,0,1-2.012-8.69,18.469,18.469,0,0,0,13.4,6.8,7.335,7.335,0,0,1-.161-1.489A6.5,6.5,0,0,1,26.694,5.433a12.792,12.792,0,0,0,4.124-1.569,6.48,6.48,0,0,1-2.856,3.581A13.025,13.025,0,0,0,31.7,6.438,13.967,13.967,0,0,1,28.444,9.8Z" transform="translate(0 -3.381)" fill="#a1a194"/>
</svg>
