<svg xmlns="http://www.w3.org/2000/svg" width="96" height="130" viewBox="0 0 96 130">
  <g id="Group_155726" data-name="Group 155726" transform="translate(-241 -205)">
    <circle id="Ellipse_5463" data-name="Ellipse 5463" cx="5" cy="5" r="5" transform="translate(305 205)" fill="#5b605f"/>
    <circle id="Ellipse_5475" data-name="Ellipse 5475" cx="6.5" cy="6.5" r="6.5" transform="translate(305 245)" fill="#ffbf23" opacity="0.4"/>
    <circle id="Ellipse_5491" data-name="Ellipse 5491" cx="6.5" cy="6.5" r="6.5" transform="translate(305 285)" fill="#ffbf23" opacity="0.2"/>
    <circle id="Ellipse_5507" data-name="Ellipse 5507" cx="5" cy="5" r="5" transform="translate(305 325)" fill="#5b605f"/>
    <circle id="Ellipse_5457" data-name="Ellipse 5457" cx="5" cy="5" r="5" transform="translate(241 205)" fill="#5b605f"/>
    <circle id="Ellipse_5470" data-name="Ellipse 5470" cx="5" cy="5" r="5" transform="translate(241 225)" fill="#5b605f"/>
    <circle id="Ellipse_5478" data-name="Ellipse 5478" cx="5" cy="5" r="5" transform="translate(241 245)" fill="#5b605f"/>
    <circle id="Ellipse_5486" data-name="Ellipse 5486" cx="5" cy="5" r="5" transform="translate(241 265)" fill="#5b605f"/>
    <circle id="Ellipse_5494" data-name="Ellipse 5494" cx="5" cy="5" r="5" transform="translate(241 285)" fill="#5b605f"/>
    <circle id="Ellipse_5502" data-name="Ellipse 5502" cx="5" cy="5" r="5" transform="translate(241 305)" fill="#5b605f"/>
    <circle id="Ellipse_5510" data-name="Ellipse 5510" cx="5" cy="5" r="5" transform="translate(241 325)" fill="#5b605f"/>
    <circle id="Ellipse_5462" data-name="Ellipse 5462" cx="5" cy="5" r="5" transform="translate(327 205)" fill="#5b605f"/>
    <circle id="Ellipse_5464" data-name="Ellipse 5464" cx="5" cy="5" r="5" transform="translate(327 225)" fill="#5b605f"/>
    <circle id="Ellipse_5472" data-name="Ellipse 5472" cx="5" cy="5" r="5" transform="translate(327 245)" fill="#5b605f"/>
    <circle id="Ellipse_5480" data-name="Ellipse 5480" cx="5" cy="5" r="5" transform="translate(327 265)" fill="#5b605f"/>
    <circle id="Ellipse_5488" data-name="Ellipse 5488" cx="5" cy="5" r="5" transform="translate(327 285)" fill="#5b605f"/>
    <circle id="Ellipse_5496" data-name="Ellipse 5496" cx="5" cy="5" r="5" transform="translate(327 305)" fill="#5b605f"/>
    <circle id="Ellipse_5504" data-name="Ellipse 5504" cx="5" cy="5" r="5" transform="translate(327 325)" fill="#5b605f"/>
    <circle id="Ellipse_5458" data-name="Ellipse 5458" cx="5" cy="5" r="5" transform="translate(284 205)" fill="#5b605f"/>
    <circle id="Ellipse_5468" data-name="Ellipse 5468" cx="6.5" cy="6.5" r="6.5" transform="translate(284 225)" fill="#ffbf23" opacity="0.5"/>
    <circle id="Ellipse_5476" data-name="Ellipse 5476" cx="5" cy="5" r="5" transform="translate(284 245)" fill="#5b605f"/>
    <circle id="Ellipse_5484" data-name="Ellipse 5484" cx="6.5" cy="6.5" r="6.5" transform="translate(284 265)" fill="#ffbf23" opacity="0.3"/>
    <circle id="Ellipse_5492" data-name="Ellipse 5492" cx="5" cy="5" r="5" transform="translate(284 285)" fill="#5b605f"/>
    <circle id="Ellipse_5500" data-name="Ellipse 5500" cx="6.5" cy="6.5" r="6.5" transform="translate(284 305)" fill="#ffbf23" opacity="0.1"/>
    <circle id="Ellipse_5508" data-name="Ellipse 5508" cx="5" cy="5" r="5" transform="translate(284 325)" fill="#5b605f"/>
    <circle id="Ellipse_5459" data-name="Ellipse 5459" cx="5" cy="5" r="5" transform="translate(262 205)" fill="#5b605f"/>
    <circle id="Ellipse_5469" data-name="Ellipse 5469" cx="6.5" cy="6.5" r="6.5" transform="translate(262 225)" fill="#ffbf23" opacity="0.6"/>
    <circle id="Ellipse_5477" data-name="Ellipse 5477" cx="6.5" cy="6.5" r="6.5" transform="translate(262 245)" fill="#ffbf23" opacity="0.7"/>
    <circle id="Ellipse_5485" data-name="Ellipse 5485" cx="6.5" cy="6.5" r="6.5" transform="translate(262 265)" fill="#ffbf23" opacity="0.8"/>
    <circle id="Ellipse_5493" data-name="Ellipse 5493" cx="6.5" cy="6.5" r="6.5" transform="translate(262 285)" fill="#ffbf23" opacity="0.9"/>
    <circle id="Ellipse_5501" data-name="Ellipse 5501" cx="6.5" cy="6.5" r="6.5" transform="translate(262 305)" fill="#ffbf23"/>
    <circle id="Ellipse_5509" data-name="Ellipse 5509" cx="5" cy="5" r="5" transform="translate(262 325)" fill="#5b605f"/>
  </g>
</svg>
